<mxfile host="app.diagrams.net" modified="2022-02-07T19:51:50.618Z" agent="5.0 (Windows NT 10.0; Win64; x64) AppleWebKit/537.36 (KHTML, like Gecko) Chrome/97.0.4692.99 Safari/537.36" etag="EBsY8G2-WPxL7jYY7nfN" version="16.5.3" type="github">
  <diagram id="cgZuAQymzo9P9m9GtYBO" name="Page-1">
    <mxGraphModel dx="2188" dy="1172" grid="1" gridSize="10" guides="1" tooltips="1" connect="1" arrows="1" fold="1" page="1" pageScale="1" pageWidth="1920" pageHeight="1200" math="0" shadow="0">
      <root>
        <mxCell id="0" />
        <mxCell id="1" parent="0" />
        <mxCell id="nOPR-63dfSeK1-8soUbw-1" value="" style="rounded=0;whiteSpace=wrap;html=1;" vertex="1" parent="1">
          <mxGeometry x="160" y="520" width="1610" height="520" as="geometry" />
        </mxCell>
        <mxCell id="nOPR-63dfSeK1-8soUbw-2" value="" style="rounded=1;whiteSpace=wrap;html=1;" vertex="1" parent="1">
          <mxGeometry x="240" y="710" width="470" height="220" as="geometry" />
        </mxCell>
        <mxCell id="nOPR-63dfSeK1-8soUbw-4" value="" style="rounded=1;whiteSpace=wrap;html=1;" vertex="1" parent="1">
          <mxGeometry x="1180" y="700" width="470" height="220" as="geometry" />
        </mxCell>
        <mxCell id="nOPR-63dfSeK1-8soUbw-5" value="ROUTER" style="rounded=1;whiteSpace=wrap;html=1;" vertex="1" parent="1">
          <mxGeometry x="650" y="780" width="120" height="60" as="geometry" />
        </mxCell>
        <mxCell id="nOPR-63dfSeK1-8soUbw-6" value="ROUTER" style="rounded=1;whiteSpace=wrap;html=1;" vertex="1" parent="1">
          <mxGeometry x="1120" y="780" width="120" height="60" as="geometry" />
        </mxCell>
        <mxCell id="nOPR-63dfSeK1-8soUbw-13" style="edgeStyle=orthogonalEdgeStyle;rounded=0;orthogonalLoop=1;jettySize=auto;html=1;exitX=1;exitY=0.5;exitDx=0;exitDy=0;entryX=0;entryY=0.5;entryDx=0;entryDy=0;" edge="1" parent="1" source="nOPR-63dfSeK1-8soUbw-7" target="nOPR-63dfSeK1-8soUbw-5">
          <mxGeometry relative="1" as="geometry" />
        </mxCell>
        <mxCell id="nOPR-63dfSeK1-8soUbw-16" style="edgeStyle=orthogonalEdgeStyle;rounded=0;orthogonalLoop=1;jettySize=auto;html=1;exitX=0.5;exitY=1;exitDx=0;exitDy=0;entryX=0.5;entryY=0;entryDx=0;entryDy=0;" edge="1" parent="1" source="nOPR-63dfSeK1-8soUbw-7" target="nOPR-63dfSeK1-8soUbw-15">
          <mxGeometry relative="1" as="geometry" />
        </mxCell>
        <mxCell id="nOPR-63dfSeK1-8soUbw-7" value="switch" style="rounded=1;whiteSpace=wrap;html=1;" vertex="1" parent="1">
          <mxGeometry x="480" y="760" width="90" height="30" as="geometry" />
        </mxCell>
        <mxCell id="nOPR-63dfSeK1-8soUbw-8" value="switch" style="rounded=1;whiteSpace=wrap;html=1;" vertex="1" parent="1">
          <mxGeometry x="1320" y="760" width="90" height="30" as="geometry" />
        </mxCell>
        <mxCell id="nOPR-63dfSeK1-8soUbw-14" value="" style="swimlane;startSize=0;" vertex="1" parent="1">
          <mxGeometry x="880" y="590" width="110" height="100" as="geometry" />
        </mxCell>
        <mxCell id="nOPR-63dfSeK1-8soUbw-15" value="DHCP&lt;br&gt;" style="rounded=0;whiteSpace=wrap;html=1;" vertex="1" parent="1">
          <mxGeometry x="495" y="830" width="60" height="25" as="geometry" />
        </mxCell>
        <mxCell id="nOPR-63dfSeK1-8soUbw-24" style="edgeStyle=orthogonalEdgeStyle;rounded=0;orthogonalLoop=1;jettySize=auto;html=1;exitX=1;exitY=0.5;exitDx=0;exitDy=0;entryX=0;entryY=0.5;entryDx=0;entryDy=0;" edge="1" parent="1" source="nOPR-63dfSeK1-8soUbw-20" target="nOPR-63dfSeK1-8soUbw-7">
          <mxGeometry relative="1" as="geometry" />
        </mxCell>
        <mxCell id="nOPR-63dfSeK1-8soUbw-20" value="" style="rounded=0;whiteSpace=wrap;html=1;" vertex="1" parent="1">
          <mxGeometry x="270" y="735" width="80" height="25" as="geometry" />
        </mxCell>
        <mxCell id="nOPR-63dfSeK1-8soUbw-25" style="edgeStyle=orthogonalEdgeStyle;rounded=0;orthogonalLoop=1;jettySize=auto;html=1;exitX=1;exitY=0.5;exitDx=0;exitDy=0;" edge="1" parent="1" source="nOPR-63dfSeK1-8soUbw-21" target="nOPR-63dfSeK1-8soUbw-7">
          <mxGeometry relative="1" as="geometry" />
        </mxCell>
        <mxCell id="nOPR-63dfSeK1-8soUbw-21" value="" style="rounded=0;whiteSpace=wrap;html=1;" vertex="1" parent="1">
          <mxGeometry x="270" y="780" width="80" height="25" as="geometry" />
        </mxCell>
        <mxCell id="nOPR-63dfSeK1-8soUbw-26" style="edgeStyle=orthogonalEdgeStyle;rounded=0;orthogonalLoop=1;jettySize=auto;html=1;entryX=0;entryY=0.5;entryDx=0;entryDy=0;" edge="1" parent="1" source="nOPR-63dfSeK1-8soUbw-22" target="nOPR-63dfSeK1-8soUbw-7">
          <mxGeometry relative="1" as="geometry" />
        </mxCell>
        <mxCell id="nOPR-63dfSeK1-8soUbw-22" value="" style="rounded=0;whiteSpace=wrap;html=1;" vertex="1" parent="1">
          <mxGeometry x="270" y="830" width="80" height="25" as="geometry" />
        </mxCell>
        <mxCell id="nOPR-63dfSeK1-8soUbw-27" style="edgeStyle=orthogonalEdgeStyle;rounded=0;orthogonalLoop=1;jettySize=auto;html=1;exitX=1;exitY=0.5;exitDx=0;exitDy=0;entryX=0;entryY=0.5;entryDx=0;entryDy=0;" edge="1" parent="1" source="nOPR-63dfSeK1-8soUbw-23" target="nOPR-63dfSeK1-8soUbw-7">
          <mxGeometry relative="1" as="geometry" />
        </mxCell>
        <mxCell id="nOPR-63dfSeK1-8soUbw-23" value="" style="rounded=0;whiteSpace=wrap;html=1;" vertex="1" parent="1">
          <mxGeometry x="270" y="880" width="80" height="25" as="geometry" />
        </mxCell>
      </root>
    </mxGraphModel>
  </diagram>
</mxfile>
